<?xml version="1.0" encoding="utf-8"?>
<!-- Generator: Adobe Illustrator 24.0.0, SVG Export Plug-In . SVG Version: 6.00 Build 0)  -->
<svg version="1.1" xmlns="http://www.w3.org/2000/svg" xmlns:xlink="http://www.w3.org/1999/xlink" x="0px" y="0px"
	 viewBox="0 0 1280 1024" style="enable-background:new 0 0 1280 1024;" xml:space="preserve">
<style type="text/css">
	.st0{fill:#002654;}
	.st1{display:none;fill:#D4EBFF;}
	.st2{fill:none;}
	.st3{fill:#E0F5FF;}
	.st4{font-family:'AvenirNext-DemiBold';}
	.st5{font-size:252px;}
	.st6{display:none;}
</style>
<g id="Layer_1">
	<path class="st0" d="M1049.48,330.29H232.83c-1.28,0-2.31-1.04-2.31-2.31v-93.23c0-15.38,12.46-27.84,27.84-27.84h763.29
		c15.38,0,27.84,12.46,27.84,27.84v95.54H1049.48z"/>
	<path class="st0" d="M997.18,837.1h-712.7c-29.8,0-53.96-24.16-53.96-53.96V358.82h818.97V784.8
		C1049.48,813.69,1026.07,837.1,997.18,837.1z"/>
	
		<rect x="414.71" y="503.96" transform="matrix(0.6693 -0.743 0.743 0.6693 -271.6655 498.8294)" class="st1" width="19.63" height="101.27"/>
	
		<rect x="371.49" y="604.45" transform="matrix(0.6693 -0.743 0.743 0.6693 -316.3027 518.9159)" class="st1" width="106.58" height="20.66"/>
	<rect x="376.84" y="487.64" class="st2" width="728.3" height="296.65"/>
	<text transform="matrix(1 0 0 1 376.8424 678.1509)" class="st3 st4 st5">amk</text>
</g>
<g id="Layer_2" class="st6">
</g>
</svg>
